<svg width="59" height="58" viewBox="0 0 59 58" fill="none" xmlns="http://www.w3.org/2000/svg">
<path d="M17.9259 24.2755C17.9259 24.9711 18.0011 25.535 18.1327 25.9486C18.2831 26.3622 18.4711 26.8133 18.7342 27.3021C18.8282 27.4525 18.8658 27.6029 18.8658 27.7345C18.8658 27.9225 18.753 28.1104 18.5087 28.2984L17.3243 29.088C17.1552 29.2008 16.986 29.2572 16.8356 29.2572C16.6476 29.2572 16.4596 29.1632 16.2716 28.994C16.0084 28.712 15.7829 28.4112 15.5949 28.1104C15.4069 27.7909 15.2189 27.4337 15.0121 27.0013C13.5458 28.7308 11.7035 29.5955 9.4853 29.5955C7.90622 29.5955 6.64671 29.1444 5.72557 28.242C4.80444 27.3397 4.33447 26.1366 4.33447 24.6327C4.33447 23.0348 4.89843 21.7377 6.04515 20.7602C7.19187 19.7826 8.71456 19.2939 10.6508 19.2939C11.29 19.2939 11.9479 19.3503 12.6435 19.4443C13.339 19.5383 14.0534 19.6886 14.8053 19.8578V18.4855C14.8053 17.0568 14.5045 16.0605 13.9218 15.4777C13.3202 14.895 12.3051 14.613 10.8576 14.613C10.1997 14.613 9.5229 14.6882 8.82735 14.8574C8.1318 15.0266 7.45505 15.2334 6.7971 15.4965C6.49632 15.6281 6.27073 15.7033 6.13914 15.7409C6.00755 15.7785 5.91356 15.7973 5.83836 15.7973C5.57518 15.7973 5.44359 15.6093 5.44359 15.2146V14.2934C5.44359 13.9927 5.48119 13.7671 5.57518 13.6355C5.66918 13.5039 5.83836 13.3723 6.10155 13.2407C6.7595 12.9023 7.54904 12.6204 8.47018 12.3948C9.39131 12.1504 10.3688 12.0376 11.4028 12.0376C13.6398 12.0376 15.2753 12.5452 16.328 13.5603C17.3619 14.5754 17.8883 16.1169 17.8883 18.1848V24.2755H17.9259V24.2755ZM10.2936 27.1329C10.914 27.1329 11.5532 27.0201 12.2299 26.7945C12.9067 26.569 13.5082 26.1554 14.0158 25.5914C14.3166 25.2342 14.5421 24.8395 14.6549 24.3883C14.7677 23.9371 14.8429 23.392 14.8429 22.7528V21.9633C14.2978 21.8317 13.715 21.7189 13.1134 21.6437C12.5119 21.5685 11.9291 21.5309 11.3464 21.5309C10.0869 21.5309 9.16573 21.7753 8.54537 22.2829C7.92502 22.7904 7.62424 23.5048 7.62424 24.4447C7.62424 25.3282 7.84982 25.9862 8.31979 26.4374C8.77096 26.9073 9.42891 27.1329 10.2936 27.1329ZM25.389 29.1632C25.0506 29.1632 24.825 29.1068 24.6746 28.9752C24.5242 28.8624 24.3926 28.5992 24.2798 28.242L19.8622 13.7107C19.7494 13.3347 19.693 13.0903 19.693 12.9587C19.693 12.658 19.8434 12.4888 20.1441 12.4888H21.9864C22.3436 12.4888 22.588 12.5452 22.7196 12.6768C22.8699 12.7895 22.9827 13.0527 23.0955 13.4099L26.2537 25.8546L29.1863 13.4099C29.2803 13.0339 29.3931 12.7895 29.5435 12.6768C29.6939 12.564 29.957 12.4888 30.2954 12.4888H31.7993C32.1565 12.4888 32.4009 12.5452 32.5513 12.6768C32.7016 12.7895 32.8332 13.0527 32.9084 13.4099L35.8786 26.005L39.1308 13.4099C39.2436 13.0339 39.3752 12.7895 39.5068 12.6768C39.6571 12.564 39.9015 12.4888 40.2399 12.4888H41.9882C42.289 12.4888 42.4581 12.6392 42.4581 12.9587C42.4581 13.0527 42.4393 13.1467 42.4205 13.2595C42.4017 13.3723 42.3641 13.5227 42.289 13.7295L37.7585 28.2608C37.6457 28.6368 37.5141 28.8812 37.3637 28.994C37.2133 29.1068 36.9689 29.182 36.6494 29.182H35.0327C34.6755 29.182 34.4311 29.1256 34.2807 28.994C34.1303 28.8624 33.9987 28.618 33.9236 28.242L31.0098 16.1169L28.1148 28.2232C28.0208 28.5992 27.908 28.8436 27.7576 28.9752C27.6072 29.1068 27.344 29.1632 27.0056 29.1632H25.389V29.1632ZM49.5452 29.6707C48.5677 29.6707 47.5902 29.5579 46.6502 29.3324C45.7103 29.1068 44.9772 28.8624 44.4884 28.5804C44.1876 28.4112 43.9808 28.2232 43.9056 28.054C43.8304 27.8849 43.7928 27.6969 43.7928 27.5277V26.569C43.7928 26.1742 43.9432 25.9862 44.2252 25.9862C44.338 25.9862 44.4508 26.005 44.5636 26.0426C44.6764 26.0802 44.8456 26.1554 45.0336 26.2306C45.6727 26.5126 46.3683 26.7381 47.1014 26.8885C47.8534 27.0389 48.5865 27.1141 49.3384 27.1141C50.5228 27.1141 51.4439 26.9073 52.0831 26.4938C52.7222 26.0802 53.0606 25.4786 53.0606 24.7079C53.0606 24.1815 52.8914 23.7492 52.553 23.392C52.2146 23.0348 51.5755 22.7152 50.6544 22.4145L47.9285 21.5685C46.5562 21.1361 45.5411 20.497 44.9208 19.651C44.3004 18.8239 43.9808 17.9028 43.9808 16.9252C43.9808 16.1357 44.15 15.4402 44.4884 14.8386C44.8268 14.237 45.2779 13.7107 45.8419 13.2971C46.4059 12.8647 47.045 12.5452 47.797 12.3196C48.5489 12.094 49.3385 12 50.1656 12C50.5792 12 51.0115 12.0188 51.4251 12.0752C51.8575 12.1316 52.2522 12.2068 52.647 12.282C53.023 12.376 53.3802 12.47 53.7185 12.5828C54.0569 12.6955 54.3201 12.8083 54.5081 12.9211C54.7713 13.0715 54.9592 13.2219 55.072 13.3911C55.1848 13.5415 55.2412 13.7483 55.2412 14.0115V14.895C55.2412 15.2898 55.0908 15.4965 54.8089 15.4965C54.6585 15.4965 54.4141 15.4214 54.0945 15.271C53.023 14.7822 51.8199 14.5378 50.4852 14.5378C49.4136 14.5378 48.5677 14.707 47.9849 15.0642C47.4022 15.4214 47.1014 15.9665 47.1014 16.7373C47.1014 17.2636 47.2894 17.7148 47.6654 18.072C48.0413 18.4291 48.7369 18.7863 49.7332 19.1059L52.4026 19.9518C53.7561 20.3842 54.7337 20.9858 55.3164 21.7565C55.8992 22.5272 56.1812 23.4108 56.1812 24.3883C56.1812 25.1967 56.012 25.9298 55.6924 26.569C55.354 27.2081 54.9029 27.7721 54.3201 28.2232C53.7373 28.6932 53.0418 29.0316 52.2334 29.276C51.3875 29.5391 50.504 29.6707 49.5452 29.6707Z" fill="#252F3E"/>
<path fill-rule="evenodd" clip-rule="evenodd" d="M53.0988 38.8069C46.914 43.375 37.9283 45.8 30.202 45.8C19.374 45.8 9.61752 41.7959 2.24845 35.1411C1.66569 34.6148 2.19205 33.9004 2.8876 34.314C10.8582 38.9385 20.6899 41.7395 30.86 41.7395C37.7215 41.7395 45.2597 40.3108 52.1964 37.3782C53.2304 36.9082 54.1139 38.0549 53.0988 38.8069Z" fill="#FF9900"/>
<path fill-rule="evenodd" clip-rule="evenodd" d="M55.6738 35.8744C54.8843 34.8592 50.4478 35.3856 48.4363 35.63C47.8348 35.7052 47.7408 35.1788 48.286 34.784C51.8201 32.3026 57.6289 33.017 58.3056 33.8441C58.9824 34.69 58.1176 40.4988 54.8091 43.281C54.3015 43.7134 53.8128 43.4878 54.0383 42.9239C54.7903 41.0628 56.4634 36.8707 55.6738 35.8744Z" fill="#FF9900"/>
</svg>