<svg width="58" height="58" viewBox="0 0 58 58" fill="none" xmlns="http://www.w3.org/2000/svg">
<path d="M6 29.0532C6 21.6518 6 14.2492 6 6.84782C6 6.00231 6.00116 6 6.86286 6C21.609 6 36.354 6 51.1001 6C52.0127 6 52.0139 6.00231 52.0139 6.9126C52.0139 21.6772 52.0139 36.443 52.0139 51.2077C52.0139 51.9977 52.0127 52 51.2089 52C36.4049 52 21.6021 52 6.79809 52C6.00116 52 6 51.9977 6 51.1996C6 43.8179 6 36.4361 6 29.0532ZM44.9988 39.3671C40.4694 31.5238 35.9885 23.7615 31.4452 15.8951C31.3145 16.1658 31.2393 16.2942 31.1884 16.4307C29.9115 19.9353 28.6334 23.44 27.3784 26.9527C27.3148 27.1309 27.398 27.4408 27.5264 27.5958C29.5032 29.9843 31.4995 32.3566 33.489 34.7335C33.9794 35.3188 34.4629 35.911 35.0123 36.5737C29.9404 37.4667 24.9668 38.3423 19.9943 39.2167C20.0001 39.2664 20.0047 39.3162 20.0105 39.3659C28.291 39.3671 36.5703 39.3671 44.9988 39.3671ZM12.4275 36.5818C12.5929 36.6246 12.6473 36.6512 12.7028 36.6512C15.0149 36.6547 17.3282 36.6686 19.6392 36.635C19.8416 36.6327 20.1273 36.3644 20.228 36.1504C23.3347 29.5297 26.423 22.901 29.5124 16.2734C29.8154 15.6233 30.1092 14.9675 30.4077 14.3152C30.2052 14.3128 30.0942 14.3707 29.9994 14.4505C26.9886 16.972 23.9778 19.4923 20.9752 22.0231C20.7612 22.2035 20.5807 22.4441 20.4385 22.6882C18.3519 26.2842 16.2745 29.8848 14.196 33.4855C13.6142 34.4976 13.0382 35.5119 12.4275 36.5818Z" fill="#2075B9"/>
<path d="M44.9994 39.3672C36.5709 39.3672 28.2916 39.3672 20.0123 39.3672C20.0065 39.3174 20.0019 39.2677 19.9961 39.218C24.9685 38.3424 29.9421 37.468 35.014 36.575C34.4658 35.9111 33.9812 35.3201 33.4907 34.7348C31.5013 32.3579 29.5049 29.9856 27.5282 27.5971C27.3998 27.4421 27.3165 27.1321 27.3802 26.954C28.6351 23.4413 29.9132 19.9378 31.1902 16.432C31.2399 16.2943 31.3162 16.1671 31.4469 15.8964C35.9879 23.7616 40.47 31.5239 44.9994 39.3672Z" fill="white"/>
<path d="M12.4272 36.5819C13.0391 35.512 13.614 34.4976 14.1969 33.4867C16.2743 29.886 18.3528 26.2854 20.4394 22.6894C20.5805 22.4453 20.7609 22.2047 20.976 22.0243C23.9787 19.4935 26.9895 16.972 30.0002 14.4517C30.0939 14.373 30.2061 14.3152 30.4085 14.3164C30.1101 14.9687 29.8163 15.6245 29.5133 16.2746C26.4239 22.9022 23.3356 29.531 20.2288 36.1516C20.1282 36.3656 19.8425 36.6328 19.6401 36.6363C17.328 36.6686 15.0158 36.6559 12.7037 36.6525C12.647 36.6513 12.5915 36.6247 12.4272 36.5819Z" fill="white"/>
</svg>