<svg width="49" height="47" viewBox="0 0 49 47" fill="none" xmlns="http://www.w3.org/2000/svg">
<path d="M15.7836 46.9933C15.7836 46.9865 15.7836 46.9763 15.7836 46.9695C15.8791 46.9695 15.978 46.9661 16.0735 46.9661C21.7678 46.9661 27.4621 46.9661 33.1564 46.9661C33.2484 46.9661 33.3405 46.9661 33.4326 46.9695C33.4326 46.9763 33.4326 46.9865 33.4326 46.9933C27.5473 46.9933 21.6655 46.9933 15.7836 46.9933Z" fill="#C9E9EC"/>
<path d="M33.4325 46.9695C33.3405 46.9695 33.2484 46.9661 33.1563 46.9661C27.462 46.9661 21.7677 46.9661 16.0734 46.9661C15.9779 46.9661 15.8791 46.9661 15.7836 46.9695C14.9073 46.9048 14.1128 46.6252 13.4104 46.0932C13.1444 45.8921 12.9023 45.6602 12.6943 45.3976C11.1702 43.5052 9.64941 41.6162 8.12866 39.7238C6.21919 37.3574 4.31313 34.991 2.41048 32.6247C2.22636 32.3962 2.03541 32.1712 1.86151 31.9325C1.22048 31.063 0.937465 30.0912 1.00907 29.0137C1.03294 28.6625 1.11818 28.3215 1.19661 27.9806C1.66716 25.9347 2.14111 23.8854 2.61166 21.8396C3.01401 20.1006 3.41295 18.3616 3.81531 16.6226C4.18697 15.0132 4.55182 13.4004 4.9303 11.791C5.25082 10.4305 6.04188 9.43144 7.3035 8.82109C9.09362 7.95501 10.8872 7.10598 12.6807 6.24672C15.9575 4.67823 19.2343 3.11314 22.511 1.54465C22.9611 1.32984 23.4215 1.15594 23.9125 1.06388C24.7479 0.910436 25.5594 1.00932 26.3334 1.34348C26.8244 1.55488 27.3018 1.79698 27.786 2.02884C31.4003 3.76441 35.0147 5.49998 38.6324 7.23555C39.7304 7.76406 40.8317 8.28917 41.9297 8.82109C42.898 9.28823 43.6004 10.0111 44.0403 10.9931C44.1903 11.3307 44.279 11.6887 44.3642 12.0467C44.7836 13.8675 45.203 15.6884 45.6224 17.5092C46.1544 19.8176 46.6829 22.126 47.2148 24.431C47.5183 25.7438 47.8285 27.0531 48.1184 28.3659C48.4184 29.7229 48.1457 30.9675 47.2728 32.0552C45.411 34.3773 43.5425 36.6959 41.6773 39.0146C39.9793 41.1252 38.2812 43.2359 36.5831 45.3431C35.8569 46.2433 34.9158 46.7615 33.7769 46.932C33.6576 46.9525 33.545 46.9593 33.4325 46.9695ZM24.6456 45.5102C27.4586 45.5102 30.2751 45.5102 33.0881 45.5102C33.2893 45.5102 33.4905 45.4999 33.6917 45.4658C34.3941 45.3465 34.9806 45.0226 35.4409 44.477C35.608 44.2792 35.7682 44.0746 35.9285 43.8735C37.3231 42.1413 38.7211 40.4057 40.1157 38.6736C41.4011 37.0778 42.6866 35.4786 43.9721 33.8829C44.7257 32.9452 45.486 32.0143 46.2328 31.0698C46.7988 30.3538 46.9693 29.5388 46.7715 28.6489C46.5465 27.6362 46.3078 26.6235 46.0725 25.6108C45.4997 23.1182 44.9268 20.6291 44.354 18.1366C43.9346 16.3158 43.5152 14.4949 43.0958 12.6775C43.0344 12.4048 42.9833 12.1252 42.898 11.8592C42.6423 11.0306 42.1036 10.4339 41.3295 10.0554C40.4532 9.62921 39.5735 9.21662 38.6938 8.79722C34.8067 6.94572 30.9229 5.09763 27.0358 3.24613C26.671 3.07223 26.3061 2.90174 25.9413 2.72443C25.365 2.44824 24.7581 2.38005 24.1307 2.47552C23.8443 2.51985 23.5613 2.58804 23.2987 2.7142C20.5197 4.0406 17.7408 5.37041 14.9618 6.70022C12.6227 7.81862 10.2836 8.93702 7.94453 10.0554C7.07845 10.468 6.54653 11.1568 6.3283 12.0808C6.00779 13.4345 5.70432 14.7882 5.39062 16.1453C4.9644 17.9968 4.53818 19.8449 4.11196 21.6964C3.61754 23.8582 3.11631 26.0234 2.61848 28.192C2.55028 28.4852 2.47186 28.7784 2.45822 29.0853C2.42753 29.8627 2.64235 30.5583 3.12994 31.1687C4.52795 32.9111 5.92936 34.6501 7.33077 36.3924C9.4687 39.0487 11.61 41.7049 13.748 44.3645C13.9253 44.5861 14.1196 44.7873 14.3481 44.951C14.8834 45.3363 15.4835 45.5136 16.1382 45.5136C18.9751 45.5102 21.8086 45.5102 24.6456 45.5102Z" fill="#336EE6"/>
<path d="M6.82267 26.5178C6.76471 26.4497 6.68287 26.4156 6.60104 26.378C6.28734 26.2382 5.99069 26.0678 5.71791 25.8632C5.51673 25.7131 5.29851 25.5836 5.15189 25.3619C4.86547 24.9323 4.74953 24.4788 4.90638 23.9776C5.07005 23.4593 5.53378 23.1149 6.07593 23.091C6.29757 23.0808 6.51238 23.1115 6.72038 23.1933C6.75107 23.207 6.78516 23.224 6.81926 23.2206C6.96247 23.3195 7.11591 23.3979 7.24207 23.5241C7.33414 23.6161 7.44666 23.6877 7.54554 23.7764C7.70239 23.9162 7.83878 24.0799 7.97517 24.2367C8.05701 24.3288 8.1593 24.4004 8.23431 24.4924C8.36729 24.6629 8.52073 24.8096 8.67076 24.9664C9.15154 25.471 9.64255 25.9621 10.2154 26.3678C10.3961 26.4974 10.5836 26.5554 10.8087 26.5042C10.9383 26.4735 11.0678 26.4837 11.1769 26.586C11.2417 26.644 11.3202 26.6883 11.3918 26.7361C11.4906 26.8009 11.4906 26.8009 11.5759 26.7156C11.9373 26.3508 12.2988 25.9893 12.6875 25.6518C12.9637 25.4097 13.2467 25.1744 13.5365 24.9494C13.9457 24.6322 14.3651 24.3356 14.8015 24.056C15.2755 23.7525 15.7597 23.4763 16.2575 23.2172C16.4621 23.1081 16.6735 23.0126 16.8849 22.9137C17.3179 22.7125 17.7578 22.5284 18.2045 22.3613C18.3374 22.3102 18.4807 22.2795 18.6068 22.2045C18.658 22.2045 18.7023 22.1874 18.7466 22.1704C19.1694 22.0272 19.5991 21.9044 20.0321 21.7919C20.7277 21.6146 21.4369 21.485 22.1496 21.4032C22.4223 21.3725 22.6985 21.335 22.9713 21.3043C23.0293 21.2975 23.0566 21.2804 23.06 21.2191C23.0634 21.0997 23.0804 20.9838 23.0838 20.8645C23.0907 20.7553 23.1111 20.6599 23.2066 20.5883C23.2543 20.5508 23.2952 20.503 23.3396 20.4587C23.4657 20.3291 23.5408 20.1757 23.5612 19.9916C23.6124 19.5449 23.5851 19.0982 23.5442 18.6515C23.5169 18.3583 23.4828 18.0685 23.4487 17.7752C23.418 17.4922 23.3907 17.2092 23.3021 16.9364C23.2748 16.8478 23.2577 16.7591 23.2373 16.667C23.1759 16.3772 23.1861 16.0806 23.1895 15.7873C23.1964 15.2759 23.3873 14.8565 23.8101 14.5564C24.1409 14.3177 24.5057 14.2052 24.9149 14.3075C25.4229 14.4336 25.7537 14.761 25.9412 15.2418C26.0776 15.5896 26.0537 15.951 26.0196 16.309C25.9856 16.6466 25.931 16.9876 25.8355 17.3183C25.8253 17.3592 25.8219 17.4035 25.8151 17.4479C25.7878 17.7548 25.7639 18.0582 25.7332 18.3651C25.6787 18.897 25.648 19.4324 25.665 19.9677C25.6719 20.145 25.7264 20.3018 25.8355 20.4416C25.9071 20.5303 25.9924 20.6087 26.0708 20.6871C26.1117 20.7247 26.1322 20.7656 26.1356 20.8235C26.1424 20.9599 26.1526 21.0963 26.1629 21.2293C26.1697 21.3384 26.1731 21.3418 26.2754 21.3486C26.647 21.3793 27.0153 21.4305 27.3836 21.4884C28.1985 21.6214 28.9998 21.8056 29.7909 22.0442C29.9409 22.0886 30.0875 22.1499 30.2443 22.1772C30.2682 22.1909 30.2887 22.2045 30.316 22.2113C30.7695 22.3579 31.2127 22.5352 31.656 22.7194C32.0208 22.8728 32.3789 23.0365 32.7301 23.2172C33.1324 23.4218 33.528 23.6366 33.9167 23.8685C34.4247 24.1787 34.9225 24.5061 35.4033 24.8607C35.7409 25.1096 36.058 25.3858 36.3717 25.6654C36.6854 25.945 37.0025 26.2212 37.2992 26.5213C37.3878 26.6099 37.4799 26.702 37.5685 26.7906C37.6572 26.8793 37.664 26.8827 37.7663 26.8145C37.8959 26.7293 38.022 26.644 38.1482 26.5588C38.2027 26.5213 38.2539 26.511 38.3221 26.5315C38.5574 26.6099 38.779 26.569 38.9836 26.4292C39.2154 26.2723 39.4371 26.0984 39.6485 25.9177C39.9417 25.662 40.2281 25.396 40.5009 25.1198C40.5964 25.0244 40.6782 24.9118 40.7805 24.8232C40.9067 24.7175 41.0124 24.5982 41.1215 24.4788C41.2238 24.3629 41.3295 24.2538 41.4284 24.1378C41.5375 24.0117 41.6534 23.8957 41.7796 23.7866C41.8614 23.715 41.9569 23.6571 42.0217 23.5684C42.2467 23.415 42.4786 23.2752 42.748 23.2138C43.0958 23.1354 43.4299 23.1763 43.7402 23.3502C44.1426 23.5752 44.3506 23.9332 44.3881 24.3867C44.4256 24.8743 44.2483 25.2869 43.9175 25.6415C43.6618 25.9177 43.3481 26.1189 43.0276 26.3064C42.7309 26.4769 42.4206 26.6201 42.1342 26.8077C42.0933 26.835 42.0558 26.8622 42.0149 26.8895C41.9262 26.9168 41.8546 26.9782 41.7762 27.0259C41.2954 27.3225 40.818 27.626 40.385 27.9909C40.2793 28.0795 40.1736 28.175 40.1088 28.3046C40.0338 28.4614 39.9929 28.6251 39.9895 28.799C39.9895 28.8672 39.9792 28.9251 39.9213 28.9729C39.8394 29.0411 39.7678 29.1161 39.686 29.1843C39.5223 29.3139 39.5223 29.3241 39.6348 29.498C39.6383 29.5014 39.6417 29.5048 39.6417 29.5082C39.9588 29.9992 40.2452 30.5039 40.5112 31.0221C40.7089 31.4074 40.8862 31.8064 41.0704 32.1985C41.0635 32.2394 41.0328 32.2667 41.009 32.2974C40.1599 33.3681 39.3109 34.4353 38.4585 35.506C38.4414 35.5264 38.421 35.5435 38.4039 35.5605C38.346 35.4173 38.3153 35.2673 38.2709 35.1207C37.9982 34.241 37.6572 33.3885 37.2241 32.5702C37.1116 32.3588 36.9889 32.1508 36.8695 31.9394C36.8252 31.8644 36.815 31.8609 36.74 31.9223C36.6377 32.0042 36.5388 32.0928 36.4433 32.1815C36.1773 32.427 35.9046 32.6691 35.6352 32.9112C35.3726 33.1464 35.1067 33.3851 34.8441 33.6238C34.5816 33.8625 34.319 34.0978 34.0531 34.3364C33.7905 34.5717 33.528 34.8104 33.262 35.0491C32.9994 35.2844 32.7369 35.5264 32.4709 35.7617C32.2459 35.9629 32.0277 36.1743 31.7992 36.3721C31.6799 36.4744 31.5707 36.5869 31.448 36.6858C31.3389 36.7744 31.2332 36.8699 31.1548 36.9858C30.9945 37.2279 30.9297 37.4871 30.9672 37.7803C31.0252 38.2167 31.2502 38.5236 31.6287 38.7316C31.8026 38.8271 31.997 38.868 32.1879 38.9226C32.8733 39.1203 33.5586 39.3147 34.244 39.5125C34.5202 39.5909 34.7998 39.6693 35.076 39.7477C34.9226 39.9762 34.7384 40.1842 34.5679 40.4024C34.2713 40.7775 33.9712 41.1526 33.6746 41.5276C33.2108 42.1141 32.6141 42.4926 31.8776 42.6324C31.7003 42.6665 31.5196 42.6767 31.3423 42.6767C29.9852 42.6767 28.6315 42.6801 27.2744 42.6835C24.1852 42.6904 21.0959 42.6938 18.0033 42.7006C17.3077 42.704 16.6837 42.4994 16.1382 42.063C15.9165 41.8857 15.7392 41.6674 15.5619 41.4492C15.1084 40.89 14.6549 40.3308 14.2014 39.7716C14.1878 39.7546 14.1775 39.7341 14.1639 39.717C14.1946 39.6829 14.2389 39.6727 14.2798 39.6625C14.5901 39.5704 14.9004 39.4784 15.2107 39.3863C15.9063 39.1851 16.6053 38.9805 17.3043 38.7862C17.5668 38.7112 17.7646 38.5645 17.9146 38.3395C18.1124 38.0428 18.1772 37.7223 18.109 37.3779C18.0647 37.1461 17.9556 36.9347 17.7817 36.7778C17.6794 36.6858 17.5737 36.5903 17.468 36.4982C17.1406 36.2186 16.8269 35.9288 16.5064 35.6458C16.2745 35.4378 16.0393 35.2366 15.8108 35.0252C15.4835 34.7286 15.1561 34.4319 14.822 34.1421C14.5867 33.9375 14.3583 33.7295 14.1264 33.5249C13.7956 33.2317 13.4649 32.935 13.1376 32.6418C12.8716 32.4031 12.6022 32.161 12.3363 31.9223C12.2681 31.8609 12.2647 31.8609 12.2135 31.9462C12.1249 32.0894 12.0396 32.2326 11.9612 32.3758C11.7941 32.6793 11.6373 32.9862 11.494 33.3033C11.3065 33.7124 11.136 34.1318 10.986 34.5547C10.9008 34.7968 10.8189 35.0423 10.7473 35.2912C10.7371 35.3321 10.7405 35.3935 10.6757 35.4037C10.42 35.0934 10.1642 34.7831 9.91192 34.4694C9.32203 33.7431 8.73214 33.0134 8.14225 32.2872C8.12179 32.2633 8.10815 32.236 8.0911 32.2122C8.20363 31.9223 8.33661 31.6427 8.46618 31.3597C8.62985 31.0153 8.80375 30.6778 8.99469 30.347C9.20269 29.989 9.40386 29.6241 9.63232 29.2763C9.68346 29.1979 9.68346 29.1706 9.60504 29.1093C9.53343 29.0513 9.47547 28.9763 9.39704 28.9285C9.22997 28.8263 9.20269 28.6796 9.21633 28.5023C9.22656 28.3625 9.18223 28.2364 9.10039 28.1204C9.01515 27.9943 8.89922 27.9056 8.78329 27.8101C8.5446 27.6124 8.29228 27.4283 8.03314 27.2612C7.74331 27.0736 7.45007 26.8929 7.15342 26.7122C7.05113 26.644 6.94542 26.5656 6.82267 26.5178ZM22.7633 25.3176C22.7633 25.2733 22.7633 25.229 22.7633 25.1846C22.7633 25.1812 22.7633 25.1744 22.7633 25.171C22.7599 25.0721 22.7531 25.0653 22.6576 25.0823C22.3542 25.1403 22.0507 25.2017 21.7438 25.2528C21.1778 25.3517 20.6254 25.4949 20.0798 25.6722C19.5411 25.8461 19.016 26.0541 18.5011 26.2894C17.9385 26.5451 17.3964 26.8418 16.8747 27.1725C16.3632 27.4964 15.8756 27.8477 15.4119 28.2398C15.1084 28.4955 14.8152 28.7581 14.539 29.0377C14.4776 29.099 14.4776 29.1059 14.5492 29.157C14.6822 29.2525 14.8118 29.3445 14.9447 29.44C15.3403 29.723 15.7358 30.0026 16.1313 30.2856C16.6496 30.6573 17.1713 31.029 17.6896 31.4006C18.2999 31.8337 18.9103 32.2667 19.5206 32.7032C19.8309 32.9248 20.148 33.1362 20.4481 33.3715C20.7345 33.5931 21.055 33.6408 21.3892 33.5658C21.9586 33.4431 22.3132 32.9657 22.3644 32.4031C22.3883 32.1201 22.4019 31.8371 22.4155 31.5541C22.4326 31.2404 22.453 30.9267 22.4701 30.6096C22.4871 30.2993 22.5076 29.989 22.5212 29.6787C22.5383 29.3718 22.5587 29.0683 22.5724 28.7615C22.5894 28.4444 22.6099 28.1238 22.6269 27.8067C22.644 27.493 22.6644 27.1793 22.6781 26.8622C22.6883 26.6167 22.7224 26.3746 22.7122 26.1291C22.7122 26.1121 22.7122 26.095 22.7122 26.078C22.7531 25.8257 22.7292 25.5699 22.7633 25.3176ZM26.3709 25.3688H26.3743C26.3743 25.4301 26.364 25.4949 26.3777 25.5529C26.4186 25.7575 26.4015 25.9621 26.4186 26.1666C26.4425 26.4701 26.4561 26.777 26.4731 27.0839C26.4902 27.4214 26.5141 27.7556 26.5277 28.0932C26.5379 28.3523 26.572 28.608 26.5618 28.8672C26.5618 28.8808 26.5618 28.8945 26.5652 28.9081C26.6061 29.1093 26.5823 29.3173 26.6095 29.5218C26.63 29.6651 26.6232 29.8083 26.6334 29.9549C26.6505 30.2822 26.6777 30.6096 26.688 30.9369C26.6982 31.196 26.7323 31.4518 26.7221 31.7109C26.7221 31.7211 26.7221 31.728 26.7221 31.7382C26.7562 31.9973 26.7562 32.2633 26.7732 32.5224C26.7766 32.5702 26.7868 32.6179 26.7971 32.6656C26.8516 32.9009 26.9778 33.0885 27.1585 33.2487C27.3733 33.4363 27.6257 33.542 27.9087 33.559C28.2258 33.5795 28.4986 33.4635 28.7509 33.2828C29.3339 32.8634 29.9204 32.4474 30.5035 32.0314C30.882 31.7621 31.2639 31.4961 31.6424 31.2301C32.3039 30.763 32.9619 30.2925 33.6234 29.8219C33.9235 29.6071 34.2235 29.3957 34.5202 29.1809C34.6259 29.1059 34.6225 29.1024 34.5304 29.0036C34.452 28.9183 34.3599 28.8535 34.2781 28.7717C34.0496 28.5432 33.8007 28.3318 33.5484 28.1307C33.1427 27.8067 32.7232 27.4964 32.28 27.2168C31.7174 26.8588 31.1343 26.5417 30.524 26.2655C29.9409 25.9996 29.3408 25.7779 28.7304 25.5938C28.5224 25.5324 28.311 25.471 28.0962 25.4233C27.7723 25.3483 27.4483 25.2733 27.121 25.2221C26.9232 25.1914 26.7255 25.1539 26.5277 25.1301C26.3811 25.113 26.3777 25.1233 26.3777 25.2665C26.3709 25.2972 26.3709 25.3312 26.3709 25.3688Z" fill="#326DE6"/>
<path d="M30.2444 22.184C30.0875 22.1567 29.9409 22.0954 29.7909 22.051C28.9998 21.8123 28.1985 21.6282 27.3836 21.4952C27.0153 21.4373 26.6471 21.3861 26.2754 21.3554C26.1731 21.3486 26.1697 21.3452 26.1629 21.2361C26.1527 21.0997 26.1424 20.9667 26.1356 20.8303C26.1322 20.7724 26.1084 20.7314 26.0708 20.6939C25.989 20.6155 25.9072 20.5371 25.8356 20.4484C25.7265 20.3086 25.6685 20.1518 25.6651 19.9745C25.648 19.4391 25.6787 18.9038 25.7333 18.3719C25.764 18.0684 25.7878 17.7615 25.8151 17.4547C25.8185 17.4103 25.8219 17.366 25.8356 17.3251C25.931 16.9943 25.9856 16.6568 26.0197 16.3158C26.0538 15.9578 26.0777 15.5963 25.9413 15.2485C25.7537 14.7678 25.423 14.4438 24.9149 14.3143C24.5058 14.212 24.1409 14.3245 23.8102 14.5632C23.3908 14.8632 23.1964 15.2826 23.1896 15.7941C23.1862 16.0873 23.176 16.384 23.2373 16.6738C23.2544 16.7625 23.2714 16.8545 23.3021 16.9432C23.3908 17.216 23.418 17.499 23.4487 17.782C23.4794 18.0752 23.5169 18.3651 23.5442 18.6583C23.5851 19.105 23.6124 19.5517 23.5613 19.9983C23.5408 20.1791 23.4658 20.3359 23.3396 20.4655C23.2953 20.5098 23.2578 20.5575 23.2066 20.5951C23.1112 20.6667 23.0907 20.7621 23.0839 20.8712C23.0771 20.9906 23.0634 21.1065 23.06 21.2259C23.0566 21.2872 23.0327 21.3043 22.9714 21.3111C22.6986 21.3418 22.4224 21.3793 22.1496 21.41C21.4336 21.4918 20.7277 21.6214 20.0322 21.7987C19.5991 21.9112 19.1695 22.034 18.7467 22.1772C18.7023 22.1908 18.6546 22.2113 18.6069 22.2113C18.5557 22.1806 18.5046 22.1465 18.45 22.1158C17.734 21.7032 17.0213 21.2941 16.3053 20.8815C15.3471 20.3291 14.389 19.7767 13.4308 19.2243C12.3431 18.5969 11.2554 17.9729 10.1677 17.349C9.09022 16.7284 8.01614 16.1078 6.94206 15.4872C6.91138 15.4702 6.87728 15.46 6.86023 15.4259C6.87728 15.3611 6.93524 15.3474 6.98298 15.3201C7.36487 15.0985 7.74677 14.8769 8.13207 14.6552C8.456 14.4711 8.77993 14.287 9.10044 14.1029C9.46188 13.8949 9.81991 13.6835 10.1779 13.4755C10.495 13.2913 10.8156 13.1106 11.1361 12.9265C11.4975 12.7185 11.8555 12.5105 12.217 12.3025C12.4863 12.1457 12.7557 11.9922 13.0251 11.8388C13.5127 11.5558 14.0003 11.2693 14.4913 10.9897C14.9823 10.7067 15.4733 10.4305 15.9609 10.1475C16.4417 9.87134 16.9224 9.58833 17.4032 9.31214C17.7271 9.12461 18.0511 8.94389 18.3716 8.75976C18.733 8.55176 19.0911 8.34036 19.4491 8.13236C19.7662 7.94824 20.0867 7.76752 20.4072 7.58339C20.7277 7.39926 21.0449 7.21514 21.362 7.03101C21.6177 6.88439 21.87 6.73777 22.1257 6.59115C22.4326 6.41384 22.7395 6.23653 23.0464 6.05923C23.3055 5.9092 23.5613 5.76258 23.8204 5.61255C23.9772 5.52389 24.1341 5.43865 24.2875 5.34318C24.3626 5.29544 24.4205 5.29544 24.5024 5.34318C25.0547 5.6671 25.6105 5.9808 26.1663 6.29791C26.763 6.63889 27.3597 6.97986 27.9564 7.32425C28.502 7.63795 29.0476 7.95847 29.5931 8.27216C30.1626 8.5995 30.7354 8.92343 31.3048 9.25077C31.9118 9.59856 32.5153 9.95318 33.1256 10.3044C33.6951 10.6317 34.2679 10.9556 34.8373 11.283C35.4102 11.6103 35.983 11.9445 36.5559 12.2718C37.1594 12.6196 37.7629 12.964 38.3665 13.3118C38.9018 13.6187 39.4371 13.9256 39.9725 14.2324C40.5487 14.5632 41.125 14.8973 41.7012 15.2281C41.7967 15.2826 41.8887 15.3406 41.9842 15.3952C42.0047 15.4054 42.0217 15.419 42.0251 15.4429C41.974 15.4327 41.9433 15.4668 41.9058 15.4872C41.0329 15.9919 40.1566 16.4931 39.2837 16.9978C37.9061 17.7888 36.532 18.5799 35.1545 19.371C33.8928 20.0972 32.6312 20.8235 31.3696 21.5498C30.9877 21.7544 30.6161 21.9692 30.2444 22.184Z" fill="#C9E9EC"/>
<path d="M30.2444 22.184C30.6161 21.9692 30.9877 21.751 31.3594 21.5395C32.621 20.8133 33.8826 20.087 35.1442 19.3607C36.5218 18.5696 37.8959 17.7786 39.2735 16.9875C40.1464 16.4863 41.0227 15.9816 41.8956 15.477C41.9331 15.4565 41.9672 15.4224 42.0149 15.4327C42.0149 18.1196 42.0149 20.8064 42.0149 23.4933C42.0149 23.5206 42.0183 23.5445 42.0183 23.5718C41.9536 23.6604 41.8581 23.7218 41.7762 23.79C41.6501 23.8991 41.5307 24.015 41.425 24.1412C41.3262 24.2571 41.2205 24.3697 41.1182 24.4822C41.009 24.6015 40.9033 24.7209 40.7772 24.8266C40.6749 24.9152 40.5931 25.0243 40.4976 25.1232C40.2248 25.4028 39.9384 25.6654 39.6451 25.9211C39.4337 26.1052 39.2121 26.2757 38.9802 26.4326C38.7756 26.5724 38.554 26.6133 38.3187 26.5349C38.254 26.5144 38.1994 26.5246 38.1448 26.5621C38.0187 26.6474 37.8891 26.7326 37.7629 26.8179C37.6607 26.8861 37.6538 26.8861 37.5652 26.794C37.4765 26.7053 37.3845 26.6133 37.2958 26.5246C36.9992 26.228 36.6821 25.9484 36.3684 25.6688C36.0547 25.3892 35.7375 25.113 35.4 24.8641C34.9192 24.5095 34.4248 24.1821 33.9133 23.8718C33.528 23.6366 33.1291 23.4217 32.7267 23.2206C32.3755 23.0433 32.0175 22.8762 31.6526 22.7227C31.2128 22.5386 30.7695 22.3647 30.3126 22.2147C30.2887 22.2113 30.2683 22.1976 30.2444 22.184Z" fill="#20BFCF"/>
<path d="M6.8534 15.4224C6.87045 15.4565 6.90795 15.4667 6.93523 15.4837C8.00931 16.1043 9.08679 16.7249 10.1609 17.3455C11.2486 17.9729 12.3363 18.5969 13.424 19.2208C14.3822 19.7732 15.3403 20.3256 16.2984 20.878C17.0145 21.2906 17.7271 21.6997 18.4432 22.1123C18.4977 22.143 18.5489 22.1771 18.6 22.2078C18.4739 22.2794 18.3307 22.3135 18.1977 22.3646C17.751 22.5317 17.3111 22.7158 16.8781 22.917C16.6667 23.0159 16.4587 23.1148 16.2507 23.2205C15.7529 23.4796 15.2687 23.7592 14.7947 24.0593C14.3583 24.3389 13.9389 24.6355 13.5297 24.9527C13.2399 25.1777 12.9569 25.413 12.6807 25.6551C12.292 25.9926 11.9305 26.3541 11.5691 26.7189C11.4839 26.8042 11.4839 26.8042 11.385 26.7394C11.3134 26.6916 11.2349 26.6473 11.1702 26.5893C11.061 26.487 10.9315 26.4768 10.8019 26.5075C10.5803 26.5621 10.3927 26.5007 10.2086 26.3711C9.63576 25.9688 9.14476 25.4743 8.66398 24.9697C8.51736 24.8163 8.36051 24.6662 8.22753 24.4957C8.15252 24.4003 8.05022 24.3321 7.96839 24.24C7.832 24.0832 7.69561 23.9195 7.53876 23.7797C7.43988 23.6945 7.32735 23.6228 7.23529 23.5274C7.11254 23.4012 6.95569 23.3228 6.81248 23.2239C6.79884 22.7738 6.80566 22.3203 6.80566 21.8702C6.80566 19.8516 6.80566 17.8365 6.80566 15.8179C6.80566 15.7156 6.80907 15.6167 6.81248 15.5144C6.81589 15.4803 6.80907 15.4394 6.8534 15.4224Z" fill="#20BFCF"/>
<path d="M35.0829 39.7509C34.8067 39.6725 34.5271 39.594 34.2509 39.5156C33.5655 39.3213 32.8801 39.1269 32.1948 38.9257C32.0072 38.8712 31.8129 38.8303 31.6356 38.7348C31.2571 38.5268 31.0321 38.2165 30.9741 37.7835C30.9366 37.4902 30.998 37.2277 31.1616 36.989C31.24 36.873 31.3458 36.7776 31.4549 36.6889C31.5776 36.59 31.6867 36.4775 31.8061 36.3752C32.0345 36.1775 32.2527 35.9661 32.4778 35.7649C32.7438 35.5296 33.0063 35.2909 33.2689 35.0522C33.5314 34.8135 33.794 34.5783 34.0599 34.3396C34.3225 34.1043 34.585 33.8656 34.851 33.627C35.1135 33.3883 35.3761 33.153 35.6421 32.9143C35.9114 32.6722 36.1842 32.4301 36.4502 32.1846C36.5456 32.096 36.6445 32.0073 36.7468 31.9255C36.8218 31.8641 36.8321 31.8675 36.8764 31.9425C36.9957 32.1505 37.1185 32.3585 37.231 32.5733C37.6606 33.3883 38.005 34.2407 38.2778 35.1238C38.3221 35.2705 38.3528 35.4205 38.4108 35.5637C37.6879 36.4741 36.9685 37.3811 36.2456 38.2915C35.8603 38.7757 35.4716 39.2633 35.0829 39.7509Z" fill="#20BFCF"/>
<path d="M10.6757 35.4034C10.7405 35.3932 10.7337 35.3318 10.7473 35.2909C10.8189 35.042 10.9008 34.7965 10.986 34.5544C11.136 34.1282 11.3065 33.7122 11.4941 33.303C11.6373 32.9859 11.7941 32.679 11.9612 32.3756C12.0396 32.229 12.1249 32.0857 12.2135 31.9459C12.2647 31.8607 12.2715 31.8607 12.3363 31.9221C12.6022 32.1608 12.8716 32.4029 13.1376 32.6415C13.4683 32.9348 13.7957 33.2314 14.1264 33.5247C14.3583 33.7327 14.5901 33.9407 14.822 34.1418C15.1562 34.4317 15.4835 34.7283 15.8108 35.025C16.0393 35.233 16.2746 35.4375 16.5064 35.6455C16.8269 35.932 17.144 36.2184 17.468 36.498C17.5737 36.59 17.6794 36.6821 17.7817 36.7776C17.959 36.9378 18.0647 37.1458 18.109 37.3777C18.1772 37.7221 18.109 38.046 17.9147 38.3393C17.7646 38.5643 17.5669 38.7143 17.3043 38.7859C16.6053 38.9837 15.9097 39.1849 15.2107 39.3861C14.9004 39.4747 14.5901 39.5702 14.2798 39.6622C14.2389 39.6759 14.1946 39.6827 14.1639 39.7168C13.9457 39.4508 13.7241 39.1815 13.5058 38.9155C12.5716 37.763 11.6373 36.6105 10.703 35.458C10.6996 35.441 10.6894 35.4205 10.6757 35.4034Z" fill="#20BFCF"/>
<path d="M6.82266 26.5177C6.94542 26.5654 7.05112 26.6439 7.16364 26.7121C7.45688 26.8928 7.75353 27.0735 8.04336 27.261C8.3025 27.4315 8.55482 27.6122 8.79351 27.81C8.90944 27.9055 9.02537 27.9975 9.11062 28.1203C9.18904 28.2362 9.23678 28.3624 9.22655 28.5022C9.21291 28.6795 9.24019 28.8261 9.40727 28.9284C9.48228 28.9761 9.54025 29.0512 9.61526 29.1091C9.69369 29.1705 9.69369 29.1978 9.64254 29.2762C9.41068 29.6206 9.21291 29.9854 9.00491 30.3469C8.81397 30.6776 8.64007 31.0152 8.4764 31.3596C8.34342 31.6392 8.21044 31.9222 8.10133 32.212C7.8831 31.9665 7.68533 31.704 7.47393 31.4516C7.40914 31.3732 7.34777 31.2948 7.28639 31.2129C6.9761 30.7833 6.81925 30.3025 6.81925 29.774C6.81925 28.7272 6.81925 27.6804 6.81925 26.6302C6.80903 26.5927 6.80562 26.5552 6.82266 26.5177Z" fill="#20BFCF"/>
<path d="M41.0772 32.1983C40.893 31.8062 40.7157 31.4072 40.518 31.0219C40.252 30.5036 39.9622 29.9956 39.6485 29.508C39.6451 29.5046 39.6417 29.5012 39.6417 29.4978C39.5325 29.3239 39.5291 29.317 39.6928 29.1841C39.7746 29.1193 39.8462 29.0408 39.9281 28.9726C39.986 28.9249 39.9929 28.8669 39.9963 28.7988C39.9997 28.6249 40.0372 28.4612 40.1156 28.3043C40.1804 28.1714 40.2827 28.0793 40.3918 27.9906C40.8248 27.6258 41.3022 27.3223 41.783 27.0257C41.8614 26.9779 41.9296 26.9166 42.0217 26.8893C42.0217 26.92 42.0251 26.9507 42.0251 26.9813C42.0251 28.0657 42.0251 29.1465 42.0251 30.2309C42.0251 30.4798 42.0114 30.7287 41.9535 30.9742C41.9194 31.1174 41.8546 31.2436 41.7625 31.3595C41.575 31.5913 41.3909 31.8266 41.2067 32.0585C41.159 32.1062 41.1147 32.154 41.0772 32.1983Z" fill="#20BFCF"/>
<path d="M22.7633 25.3175C22.7292 25.5699 22.7531 25.8256 22.7122 26.0779C22.7088 26.095 22.7088 26.112 22.7122 26.1291C22.7224 26.3746 22.6883 26.6201 22.6781 26.8622C22.6644 27.1759 22.644 27.4895 22.6269 27.8067C22.6099 28.1238 22.5894 28.4443 22.5724 28.7614C22.5553 29.0683 22.5383 29.3717 22.5212 29.6786C22.5042 29.9889 22.4871 30.2992 22.4701 30.6095C22.453 30.9232 22.4326 31.2369 22.4155 31.554C22.4019 31.837 22.3883 32.1234 22.3644 32.403C22.3166 32.969 21.962 33.443 21.3892 33.5658C21.055 33.6374 20.7345 33.593 20.4481 33.3714C20.148 33.1395 19.8309 32.9247 19.5206 32.7031C18.9103 32.27 18.2999 31.837 17.6896 31.4005C17.1679 31.0289 16.6496 30.6572 16.1313 30.2856C15.7358 30.0025 15.3403 29.7229 14.9447 29.4399C14.8118 29.3445 14.6788 29.2524 14.5492 29.1569C14.481 29.1058 14.4776 29.1024 14.539 29.0376C14.8152 28.7546 15.1084 28.492 15.4119 28.2397C15.8756 27.851 16.3666 27.4964 16.8747 27.1724C17.3964 26.8417 17.9385 26.545 18.5011 26.2893C19.016 26.054 19.5411 25.846 20.0798 25.6721C20.6254 25.4948 21.1778 25.3516 21.7438 25.2527C22.0507 25.1982 22.3542 25.1402 22.6576 25.0823C22.7531 25.0652 22.7599 25.0686 22.7633 25.1709C22.7633 25.1743 22.7633 25.1811 22.7633 25.1845C22.7633 25.2289 22.7633 25.2732 22.7633 25.3175Z" fill="#20BFCF"/>
<path d="M26.3709 25.3686C26.3709 25.3345 26.3709 25.297 26.3709 25.2629C26.3709 25.1197 26.3743 25.1095 26.521 25.1265C26.7187 25.1504 26.9165 25.1879 27.1142 25.2186C27.4416 25.2697 27.7655 25.3413 28.0894 25.4198C28.3008 25.4709 28.5123 25.5289 28.7237 25.5903C29.3374 25.7744 29.9341 25.996 30.5172 26.262C31.1241 26.5382 31.7072 26.8553 32.2732 27.2133C32.7131 27.4929 33.1325 27.7998 33.5417 28.1271C33.794 28.3283 34.0429 28.5397 34.2713 28.7682C34.3532 28.85 34.4452 28.9148 34.5237 29C34.6157 29.0989 34.6191 29.0989 34.5134 29.1773C34.2168 29.3921 33.9167 29.607 33.6167 29.8184C32.9586 30.2889 32.2971 30.7595 31.6356 31.2266C31.2571 31.496 30.8752 31.7619 30.4967 32.0279C29.9103 32.4439 29.3238 32.8599 28.7441 33.2793C28.4918 33.46 28.219 33.5793 27.9019 33.5555C27.6189 33.535 27.3666 33.4327 27.1518 33.2452C26.971 33.0883 26.8449 32.9008 26.7903 32.6621C26.7801 32.6144 26.7699 32.57 26.7665 32.5189C26.7494 32.2563 26.7494 31.9938 26.7153 31.7347C26.7153 31.7244 26.7153 31.7176 26.7153 31.7074C26.7255 31.4482 26.6914 31.1925 26.6812 30.9334C26.671 30.606 26.6437 30.2787 26.6267 29.9513C26.6198 29.8081 26.6232 29.6615 26.6028 29.5183C26.5755 29.3137 26.5994 29.1057 26.5585 28.9045C26.555 28.8909 26.555 28.8773 26.555 28.8636C26.5687 28.6045 26.5312 28.3488 26.521 28.0896C26.5073 27.752 26.4869 27.4179 26.4664 27.0803C26.4493 26.7734 26.4357 26.47 26.4118 26.1631C26.3948 25.9585 26.4118 25.7505 26.3709 25.5493C26.3573 25.4914 26.3675 25.4266 26.3675 25.3652C26.3743 25.3686 26.3709 25.3686 26.3709 25.3686Z" fill="#20BFCF"/>
</svg>
